<?xml version="1.0" encoding="UTF-8" standalone="no"?>
<!-- Created with Inkscape (http://www.inkscape.org/) -->

<svg
   xmlns:dc="http://purl.org/dc/elements/1.1/"
   xmlns:cc="http://creativecommons.org/ns#"
   xmlns:rdf="http://www.w3.org/1999/02/22-rdf-syntax-ns#"
   xmlns:svg="http://www.w3.org/2000/svg"
   xmlns="http://www.w3.org/2000/svg"
   xmlns:xlink="http://www.w3.org/1999/xlink"
   xmlns:sodipodi="http://sodipodi.sourceforge.net/DTD/sodipodi-0.dtd"
   xmlns:inkscape="http://www.inkscape.org/namespaces/inkscape"
   width="340"
   height="310"
   id="svg9167"
   version="1.1"
   inkscape:version="0.48.4 r9939"
   sodipodi:docname="speedo-bg.svg">
  <defs
     id="defs9169">
    <filter
       color-interpolation-filters="sRGB"
       inkscape:collect="always"
       id="filter4625">
      <feGaussianBlur
         inkscape:collect="always"
         stdDeviation="7.2181142"
         id="feGaussianBlur4627" />
    </filter>
    <linearGradient
       id="linearGradient5736">
      <stop
         style="stop-color:#ffffff;stop-opacity:1;"
         offset="0"
         id="stop5738" />
      <stop
         id="stop5583"
         offset="0.52999997"
         style="stop-color:#ffffff;stop-opacity:1;" />
      <stop
         style="stop-color:#969696;stop-opacity:1;"
         offset="1"
         id="stop5740" />
    </linearGradient>
    <filter
       color-interpolation-filters="sRGB"
       inkscape:collect="always"
       id="filter5579">
      <feGaussianBlur
         inkscape:collect="always"
         stdDeviation="4.4884748"
         id="feGaussianBlur5581" />
    </filter>
    <filter
       color-interpolation-filters="sRGB"
       inkscape:collect="always"
       id="filter4230"
       x="-0.024890412"
       width="1.0497808"
       y="-0.67089128"
       height="2.3417826">
      <feGaussianBlur
         inkscape:collect="always"
         stdDeviation="3.2146873"
         id="feGaussianBlur4232" />
    </filter>
    <linearGradient
       inkscape:collect="always"
       xlink:href="#linearGradient4022"
       id="linearGradient4839"
       gradientUnits="userSpaceOnUse"
       spreadMethod="reflect"
       x1="494.44278"
       y1="24.810099"
       x2="494.44278"
       y2="471.58508" />
    <linearGradient
       id="linearGradient4022">
      <stop
         style="stop-color:#a4a4a4;stop-opacity:1;"
         offset="0"
         id="stop4024" />
      <stop
         id="stop4036"
         offset="0.37096775"
         style="stop-color:#f2f2f2;stop-opacity:1;" />
      <stop
         id="stop4034"
         offset="0.62460977"
         style="stop-color:#232323;stop-opacity:1;" />
      <stop
         style="stop-color:#cfcfcf;stop-opacity:1;"
         offset="0.81230485"
         id="stop4040" />
      <stop
         id="stop4030"
         offset="1"
         style="stop-color:#dbdbdb;stop-opacity:1;" />
    </linearGradient>
    <linearGradient
       id="linearGradient3423">
      <stop
         style="stop-color:#a4a4a4;stop-opacity:1;"
         offset="0"
         id="stop3425" />
      <stop
         id="stop3427"
         offset="0.37096775"
         style="stop-color:#f2f2f2;stop-opacity:1;" />
      <stop
         id="stop3429"
         offset="0.62460977"
         style="stop-color:#232323;stop-opacity:1;" />
      <stop
         style="stop-color:#cfcfcf;stop-opacity:1;"
         offset="0.81230485"
         id="stop3431" />
      <stop
         id="stop3433"
         offset="1"
         style="stop-color:#dbdbdb;stop-opacity:1;" />
    </linearGradient>
    <linearGradient
       id="linearGradient3436">
      <stop
         style="stop-color:#a4a4a4;stop-opacity:1;"
         offset="0"
         id="stop3438" />
      <stop
         id="stop3440"
         offset="0.37096775"
         style="stop-color:#f2f2f2;stop-opacity:1;" />
      <stop
         id="stop3442"
         offset="0.62460977"
         style="stop-color:#232323;stop-opacity:1;" />
      <stop
         style="stop-color:#cfcfcf;stop-opacity:1;"
         offset="0.81230485"
         id="stop3444" />
      <stop
         id="stop3446"
         offset="1"
         style="stop-color:#dbdbdb;stop-opacity:1;" />
    </linearGradient>
    <linearGradient
       inkscape:collect="always"
       xlink:href="#linearGradient4022"
       id="linearGradient3469"
       gradientUnits="userSpaceOnUse"
       spreadMethod="reflect"
       x1="494.44278"
       y1="24.810099"
       x2="494.44278"
       y2="471.58508" />
    <radialGradient
       inkscape:collect="always"
       xlink:href="#linearGradient5736"
       id="radialGradient3529"
       gradientUnits="userSpaceOnUse"
       gradientTransform="matrix(1,0,0,1.0186011,0,-15.218975)"
       cx="392.13928"
       cy="433.72601"
       fx="392.13928"
       fy="433.72601"
       r="159.21786" />
    <linearGradient
       inkscape:collect="always"
       xlink:href="#linearGradient4022"
       id="linearGradient3531"
       gradientUnits="userSpaceOnUse"
       spreadMethod="pad"
       x1="494.44278"
       y1="24.810099"
       x2="491.63614"
       y2="422.23108" />
    <linearGradient
       inkscape:collect="always"
       xlink:href="#linearGradient4022"
       id="linearGradient3533"
       gradientUnits="userSpaceOnUse"
       spreadMethod="reflect"
       x1="494.44278"
       y1="24.810099"
       x2="494.44278"
       y2="471.58508" />
    <linearGradient
       inkscape:collect="always"
       xlink:href="#linearGradient4022"
       id="linearGradient3535"
       gradientUnits="userSpaceOnUse"
       spreadMethod="reflect"
       x1="494.44278"
       y1="24.810099"
       x2="494.44278"
       y2="471.58508" />
    <radialGradient
       inkscape:collect="always"
       xlink:href="#linearGradient5736"
       id="radialGradient4361"
       gradientUnits="userSpaceOnUse"
       gradientTransform="matrix(1,0,0,1.0186011,0,-15.218975)"
       cx="392.13928"
       cy="433.72601"
       fx="392.13928"
       fy="433.72601"
       r="159.21786" />
    <linearGradient
       inkscape:collect="always"
       xlink:href="#linearGradient4022"
       id="linearGradient4363"
       gradientUnits="userSpaceOnUse"
       spreadMethod="pad"
       x1="494.44278"
       y1="24.810099"
       x2="491.63614"
       y2="422.23108" />
    <linearGradient
       inkscape:collect="always"
       xlink:href="#linearGradient4022"
       id="linearGradient4365"
       gradientUnits="userSpaceOnUse"
       spreadMethod="reflect"
       x1="494.44278"
       y1="24.810099"
       x2="494.44278"
       y2="471.58508" />
    <linearGradient
       inkscape:collect="always"
       xlink:href="#linearGradient4022"
       id="linearGradient4367"
       gradientUnits="userSpaceOnUse"
       spreadMethod="reflect"
       x1="494.44278"
       y1="24.810099"
       x2="494.44278"
       y2="471.58508" />
    <radialGradient
       inkscape:collect="always"
       xlink:href="#linearGradient5820"
       id="radialGradient3175"
       gradientUnits="userSpaceOnUse"
       gradientTransform="matrix(-0.36592266,1.274364,-1.901646,-0.54604138,998.9075,-266.97736)"
       cx="608.75415"
       cy="144.91293"
       fx="608.75415"
       fy="144.91293"
       r="224.65672" />
    <linearGradient
       id="linearGradient5820">
      <stop
         id="stop5822"
         offset="0"
         style="stop-color:#ffffff;stop-opacity:0.71428573;" />
      <stop
         id="stop5826"
         offset="1"
         style="stop-color:#000000;stop-opacity:1;" />
    </linearGradient>
    <radialGradient
       inkscape:collect="always"
       xlink:href="#linearGradient5804"
       id="radialGradient3171"
       gradientUnits="userSpaceOnUse"
       gradientTransform="matrix(1.5379553,-0.0084317,0.00528414,0.96383599,-266.8479,-44.308636)"
       cx="499.30161"
       cy="258.44"
       fx="499.30161"
       fy="258.44"
       r="224.90294" />
    <linearGradient
       id="linearGradient5804">
      <stop
         style="stop-color:#ffffff;stop-opacity:1;"
         offset="0"
         id="stop5806" />
      <stop
         style="stop-color:#000000;stop-opacity:0.30357143;"
         offset="1"
         id="stop5808" />
    </linearGradient>
    <radialGradient
       r="224.90294"
       fy="258.44"
       fx="499.30161"
       cy="258.44"
       cx="499.30161"
       gradientTransform="matrix(1.5379553,-0.0084317,0.00528414,0.96383599,-266.8479,-44.308636)"
       gradientUnits="userSpaceOnUse"
       id="radialGradient3285"
       xlink:href="#linearGradient5804"
       inkscape:collect="always" />
  </defs>
  <sodipodi:namedview
     id="base"
     pagecolor="#848484"
     bordercolor="#666666"
     borderopacity="1.0"
     inkscape:pageopacity="1"
     inkscape:pageshadow="2"
     inkscape:zoom="1.4"
     inkscape:cx="32.324676"
     inkscape:cy="146.27618"
     inkscape:document-units="px"
     inkscape:current-layer="g3142"
     showgrid="false"
     fit-margin-top="0"
     fit-margin-left="0"
     fit-margin-right="0"
     fit-margin-bottom="0"
     inkscape:window-width="1384"
     inkscape:window-height="738"
     inkscape:window-x="212"
     inkscape:window-y="190"
     inkscape:window-maximized="0" />
  <metadata
     id="metadata9172">
    <rdf:RDF>
      <cc:Work
         rdf:about="">
        <dc:format>image/svg+xml</dc:format>
        <dc:type
           rdf:resource="http://purl.org/dc/dcmitype/StillImage" />
        <dc:title></dc:title>
      </cc:Work>
    </rdf:RDF>
  </metadata>
  <g
     inkscape:label="Layer 1"
     inkscape:groupmode="layer"
     id="layer1"
     transform="translate(-131.689,-122.46571)">
    <g
       transform="translate(143.28072,114.84185)"
       style="display:inline"
       id="spd_bg"
       inkscape:label="">
      <g
         id="g3081">
        <g
           id="g3142">
          <g
             transform="matrix(0.66037535,0,0,0.64802372,-167.6044,5.3722207)"
             id="g3256">
            <path
               inkscape:connector-curvature="0"
               id="path5794"
               d="m 716.04812,280.83836 c -0.29552,-0.87555 -0.72884,-1.73444 -1.30614,-2.52323 -0.59893,-0.81834 -1.34244,-1.58434 -2.1967,-2.25607 -0.84777,-0.66663 -1.79845,-1.25269 -2.84977,-1.72174 -0.008,-0.004 -0.0216,0.004 -0.0296,0 -5.33683,-2.37267 -10.74289,-4.62727 -16.20806,-6.79788 -5.60577,-2.22645 -11.28063,-4.36764 -17.00955,-6.38229 -5.72893,-2.01466 -11.52572,-3.92556 -17.36578,-5.72922 -5.84006,-1.80367 -11.72347,-3.48267 -17.66263,-5.07615 -5.93915,-1.59349 -11.93324,-3.09834 -17.95947,-4.48245 -6.02624,-1.38412 -12.09567,-2.65383 -18.19696,-3.82938 -6.10129,-1.17555 -12.24045,-2.2382 -18.40475,-3.20599 -6.16431,-0.96779 -12.33788,-1.85144 -18.55318,-2.61228 -6.2153,-0.76085 -12.44734,-1.40452 -18.7016,-1.95922 -6.25427,-0.5547 -12.53915,-1.01614 -18.82035,-1.36551 -6.2812,-0.34938 -12.5836,-0.59729 -18.87971,-0.74213 -6.29612,-0.14485 -12.58071,-0.17762 -18.87972,-0.11874 -6.299,0.0589 -12.58984,0.21318 -18.87971,0.47496 -6.28987,0.26178 -12.58134,0.63446 -18.85003,1.09835 -6.26869,0.46388 -12.52548,1.02687 -18.76097,1.69205 -6.2355,0.66517 -12.45197,1.42008 -18.64224,2.28575 -6.28032,0.8774 -12.53826,1.84799 -18.79066,2.87945 -6.25239,1.03147 -12.4925,2.1308 -18.7016,3.32473 -6.2091,1.19393 -12.40271,2.4646 -18.55318,3.82938 -6.15046,1.36478 -12.26892,2.81969 -18.34538,4.36371 -6.07647,1.54401 -12.1208,3.19608 -18.1079,4.92772 -5.98711,1.73164 -11.89897,3.5344 -17.78137,5.46206 -5.8824,1.92765 -11.72219,3.95337 -17.48451,6.08544 -5.76233,2.13206 -11.47172,4.39366 -17.09861,6.73851 -1.0922,0.60028 -2.07694,1.29068 -2.93883,2.07796 -0.86188,0.78728 -1.57937,1.65995 -2.16701,2.5826 -0.53376,0.83806 -0.91449,1.73288 -1.1874,2.64197 3.1035,61.11996 30.98856,120.76545 82.04957,162.6149 l 284.38312,0.62339 c 11.76192,-9.5553 22.54287,-20.28004 32.14895,-32.00052 32.10184,-39.16785 48.74741,-85.92 50.73181,-132.90013 z"
               style="opacity:0.41810345;fill:url(#radialGradient3175);fill-opacity:1;fill-rule:nonzero;stroke:none" />
            <path
               inkscape:connector-curvature="0"
               id="path3499-2"
               d="m 490.73832,46.266821 c -64.80796,0.219446 -129.04154,28.308069 -173.33121,82.346419 -36.88774,45.00717 -53.40799,100.01397 -50.67244,153.88748 0.27291,-0.90909 0.65364,-1.80391 1.1874,-2.64197 0.58765,-0.92265 1.30513,-1.79532 2.16702,-2.5826 0.86188,-0.78728 1.84663,-1.47768 2.93882,-2.07796 5.6269,-2.34485 11.33628,-4.60645 17.09861,-6.73851 5.76232,-2.13207 11.60212,-4.15779 17.48451,-6.08544 5.8824,-1.92766 11.79426,-3.73042 17.78137,-5.46206 5.98711,-1.73164 12.03144,-3.38371 18.1079,-4.92772 6.07647,-1.54402 12.19492,-2.99893 18.34538,-4.36371 6.15047,-1.36478 12.34408,-2.63545 18.55318,-3.82938 6.20911,-1.19393 12.44921,-2.29326 18.70161,-3.32473 6.25239,-1.03146 12.51034,-2.00205 18.79066,-2.87945 6.19026,-0.86567 12.40674,-1.62058 18.64223,-2.28575 6.23549,-0.66518 12.49228,-1.22817 18.76097,-1.69205 6.26869,-0.46389 12.56017,-0.83657 18.85003,-1.09835 6.28987,-0.26178 12.58071,-0.41609 18.87972,-0.47496 6.299,-0.0589 12.58359,-0.0261 18.87971,0.11874 6.29612,0.14484 12.59851,0.39275 18.87971,0.74213 6.28121,0.34937 12.56609,0.81081 18.82035,1.36551 6.25426,0.5547 12.48631,1.19837 18.7016,1.95922 6.2153,0.76084 12.38888,1.64449 18.55318,2.61228 6.16431,0.96779 12.30347,2.03044 18.40475,3.20599 6.10129,1.17555 12.17073,2.44526 18.19696,3.82938 6.02623,1.38411 12.02032,2.88896 17.95948,4.48245 5.93915,1.59348 11.82256,3.27248 17.66262,5.07615 5.84006,1.80366 11.63685,3.71456 17.36578,5.72922 5.72892,2.01465 11.40378,4.15584 17.00955,6.38229 5.46517,2.17061 10.87123,4.42521 16.20806,6.79788 0.008,0.004 0.0217,-0.004 0.0296,0 0,0 0,0 0,0 1.05131,0.46905 2.002,1.05511 2.84976,1.72174 0.85426,0.67173 1.59777,1.43773 2.1967,2.25607 0.57731,0.78879 1.01062,1.64768 1.30614,2.52323 2.8828,-68.24949 -25.2086,-136.96691 -82.10894,-183.602246 C 591.90929,62.788591 541.14447,46.096141 490.73828,46.266821 z"
               style="opacity:0.40086209;fill:url(#radialGradient3285);fill-opacity:1;fill-rule:nonzero;stroke:none" />
          </g>
          <g
             transform="matrix(0.57411015,0,0,0.57411015,-124.27961,3.3018467)"
             id="g5683" />
          <g
             transform="matrix(0.65821988,0,0,0.65821988,-166.03382,3.4988473)"
             id="g5780">
            <g
               transform="matrix(1,0,0,0.77040269,0,59.271051)"
               id="g5759">
              <g
                 id="g5776" />
            </g>
          </g>
        </g>
      </g>
    </g>
  </g>
</svg>
